<svg width="208" height="54" viewBox="0 0 208 54" fill="none" xmlns="http://www.w3.org/2000/svg">
<g clip-path="url(#clip0_142_41)">
<path d="M9.73959 4.35248e-06H45.2604C46.5398 -0.00120989 47.8068 0.251645 48.989 0.744097C50.1712 1.23655 51.2454 1.95893 52.15 2.8699C53.0547 3.78087 53.772 4.86255 54.2611 6.05302C54.7501 7.24349 55.0012 8.51939 55 9.8077V44.1923C55.0012 45.4806 54.7501 46.7565 54.2611 47.947C53.772 49.1375 53.0547 50.2191 52.15 51.1301C51.2454 52.0411 50.1712 52.7635 48.989 53.2559C47.8068 53.7484 46.5398 54.0012 45.2604 54H9.73959C8.46023 54.0012 7.19319 53.7484 6.01098 53.2559C4.82878 52.7635 3.75462 52.0411 2.84997 51.1301C1.94533 50.2191 1.22796 49.1375 0.73893 47.947C0.249897 46.7565 -0.00120148 45.4806 4.32226e-06 44.1923V9.8077C-0.00120148 8.51939 0.249897 7.24349 0.73893 6.05302C1.22796 4.86255 1.94533 3.78087 2.84997 2.8699C3.75462 1.95893 4.82878 1.23655 6.01098 0.744097C7.19319 0.251645 8.46023 -0.00120989 9.73959 4.35248e-06Z" fill="black"/>
<path d="M22.0913 32.3077H13.5663L11.8247 37.7539C11.8052 37.8527 11.7497 37.9407 11.6692 38.0004C11.5886 38.0602 11.4888 38.0875 11.3892 38.077H7.0809C6.82882 38.077 6.76007 37.9385 6.82882 37.6616L14.208 16.3616C14.2767 16.1308 14.3455 15.9231 14.4372 15.6462C14.5294 15.1516 14.5754 14.6494 14.5747 14.1462C14.5678 14.0884 14.5829 14.0301 14.6169 13.983C14.6509 13.936 14.7013 13.9036 14.758 13.8923H20.6934C20.8538 13.8923 20.9684 13.9616 20.9913 14.0769L29.3559 37.7308C29.4247 37.9846 29.3559 38.1 29.1267 38.1H24.3372C24.2561 38.1079 24.175 38.0867 24.1079 38.0403C24.0409 37.9939 23.9922 37.9252 23.9705 37.8462L22.0913 32.3077ZM14.8955 27.7154H20.7163C20.5788 27.2308 20.3955 26.6539 20.1892 26.0539C19.983 25.4539 19.7767 24.7616 19.5705 24.0693C19.3642 23.3769 19.1351 22.6616 18.9059 21.9462C18.6767 21.2308 18.4705 20.5616 18.2872 19.8923C18.1038 19.2231 17.9434 18.6462 17.783 18.0923H17.7372C17.5312 19.0981 17.2711 20.0919 16.958 21.0693C16.6142 22.1769 16.2705 23.3308 15.9038 24.4846C15.6059 25.6616 15.2392 26.7462 14.8955 27.7154ZM42.9455 30.1846H35.6809C35.7676 30.9129 36.01 31.6136 36.3913 32.2385C36.7963 32.8605 37.3798 33.3435 38.0642 33.6231C38.9905 34.022 39.9903 34.2187 40.9976 34.2C41.7978 34.1852 42.5953 34.1003 43.3809 33.9462C44.0798 33.854 44.7648 33.6758 45.4205 33.4154C45.5351 33.3231 45.6038 33.3693 45.6038 33.6V37.1308C45.5998 37.2246 45.5844 37.3176 45.558 37.4077C45.5166 37.4725 45.4619 37.5275 45.3976 37.5693C44.6646 37.8934 43.895 38.1259 43.1059 38.2616C42.0339 38.4692 40.9431 38.562 39.8517 38.5385C38.1101 38.5385 36.6434 38.2616 35.4517 37.7308C34.3304 37.2407 33.3407 36.4893 32.5642 35.5385C31.8387 34.6494 31.3006 33.6208 30.983 32.5154C30.3115 30.2131 30.3434 27.7607 31.0747 25.4769C31.4401 24.3215 32.0237 23.248 32.7934 22.3154C33.5513 21.3932 34.4969 20.6456 35.5663 20.1231C36.6434 19.5923 37.9267 19.4077 39.3934 19.4077C40.6154 19.3792 41.8284 19.6235 42.9455 20.1231C43.8843 20.533 44.7101 21.1665 45.3517 21.9693C45.9609 22.7574 46.4264 23.6482 46.7267 24.6C47.0182 25.5095 47.1651 26.4597 47.1622 27.4154C47.1622 27.9693 47.1392 28.4539 47.1163 28.8923C47.0934 29.3308 47.0476 29.6539 47.0247 29.8616C47.0146 29.9415 46.9769 30.0153 46.9183 30.0702C46.8596 30.125 46.7837 30.1573 46.7038 30.1616C46.5663 30.1616 46.3142 30.1846 45.9476 30.2077C45.5063 30.2582 45.0624 30.2813 44.6184 30.2769C44.0913 30.2769 43.5413 30.1846 42.9455 30.1846ZM35.6809 26.8154H40.5163C41.1122 26.8154 41.5476 26.8154 41.8226 26.7923C42.0109 26.7765 42.1922 26.713 42.3497 26.6077V26.3769C42.3506 26.0867 42.3041 25.7982 42.2122 25.5231C42.0115 24.8917 41.6124 24.343 41.075 23.9601C40.5376 23.5771 39.8911 23.3805 39.233 23.4C38.611 23.3649 37.9923 23.5118 37.4514 23.823C36.9106 24.1343 36.4708 24.5965 36.1851 25.1539C35.9177 25.6721 35.7468 26.2352 35.6809 26.8154Z" fill="white"/>
</g>
<path d="M80.6156 15.888L87.2156 33H83.9996L82.3676 28.464H75.5996L73.9196 33H70.8236L77.4236 15.888H80.6156ZM81.5756 26.208L79.0316 19.008L76.3676 26.208H81.5756ZM94.6074 15.888V18C94.0794 17.952 93.6714 17.928 93.4074 17.928C92.8314 17.928 92.4714 18.048 92.2794 18.24C92.0874 18.432 91.9914 18.84 91.9914 19.416V20.616H94.3434V22.608H92.0154V33H89.3034V22.608H87.2634V20.616H89.3034V19.632C89.3034 18.336 89.5674 17.376 90.1434 16.752C90.6954 16.128 91.6314 15.816 92.9754 15.816C93.5034 15.816 94.0554 15.84 94.6074 15.888ZM102.082 20.616V22.608H99.5858V29.136C99.5858 29.52 99.5858 29.808 99.6098 29.952C99.6098 30.096 99.6578 30.264 99.7538 30.456C99.8258 30.648 99.9698 30.768 100.162 30.816C100.354 30.888 100.642 30.912 101.002 30.912C101.434 30.912 101.794 30.912 102.082 30.864V33.024C101.53 33.096 100.906 33.12 100.234 33.12C99.7538 33.12 99.3218 33.096 98.9618 33.024C98.6018 32.952 98.3138 32.856 98.0738 32.76C97.8338 32.664 97.6178 32.52 97.4738 32.28C97.3058 32.04 97.1858 31.848 97.0898 31.704C96.9938 31.56 96.9458 31.272 96.8978 30.888C96.8498 30.504 96.8498 30.216 96.8498 30.024V28.968V28.824V28.68V28.512V22.608H94.7858V20.616H96.8498V16.896H99.5858V20.616H102.082ZM115.114 29.136C114.802 30.48 114.13 31.536 113.122 32.28C112.114 33.048 110.89 33.408 109.498 33.408C107.626 33.408 106.138 32.808 105.034 31.608C103.93 30.408 103.402 28.848 103.402 26.952C103.402 25.032 103.954 23.424 105.082 22.152C106.21 20.904 107.65 20.256 109.402 20.256C111.202 20.256 112.642 20.88 113.698 22.128C114.754 23.376 115.282 25.056 115.282 27.192V27.48H106.138C106.162 28.728 106.474 29.712 107.074 30.384C107.65 31.056 108.49 31.392 109.546 31.392C110.29 31.392 110.89 31.224 111.37 30.864C111.85 30.504 112.21 29.928 112.498 29.136H115.114ZM112.546 25.656C112.45 24.624 112.138 23.808 111.562 23.208C110.986 22.608 110.266 22.296 109.378 22.296C108.466 22.296 107.746 22.584 107.194 23.16C106.642 23.736 106.306 24.576 106.186 25.656H112.546ZM124.37 20.376V22.992C123.89 22.944 123.554 22.92 123.41 22.92C121.01 22.92 119.834 24.48 119.834 27.552V33H117.122V20.616H119.69V23.088C120.554 21.264 121.946 20.328 123.842 20.328L124.37 20.376ZM145.127 15.912V18.432H135.791V22.968H144.455V25.392H135.791V30.432H145.271V33H132.815V15.912H145.127ZM153.74 15.888V18C153.212 17.952 152.804 17.928 152.54 17.928C151.964 17.928 151.604 18.048 151.412 18.24C151.22 18.432 151.124 18.84 151.124 19.416V20.616H153.476V22.608H151.148V33H148.436V22.608H146.396V20.616H148.436V19.632C148.436 18.336 148.7 17.376 149.276 16.752C149.828 16.128 150.764 15.816 152.108 15.816C152.636 15.816 153.188 15.84 153.74 15.888ZM160.889 15.888V18C160.361 17.952 159.953 17.928 159.689 17.928C159.113 17.928 158.753 18.048 158.561 18.24C158.369 18.432 158.273 18.84 158.273 19.416V20.616H160.625V22.608H158.297V33H155.585V22.608H153.545V20.616H155.585V19.632C155.585 18.336 155.849 17.376 156.425 16.752C156.977 16.128 157.913 15.816 159.257 15.816C159.785 15.816 160.337 15.84 160.889 15.888ZM173.403 29.136C173.091 30.48 172.419 31.536 171.411 32.28C170.403 33.048 169.179 33.408 167.787 33.408C165.915 33.408 164.427 32.808 163.323 31.608C162.219 30.408 161.691 28.848 161.691 26.952C161.691 25.032 162.243 23.424 163.371 22.152C164.499 20.904 165.939 20.256 167.691 20.256C169.491 20.256 170.931 20.88 171.987 22.128C173.043 23.376 173.571 25.056 173.571 27.192V27.48H164.427C164.451 28.728 164.763 29.712 165.363 30.384C165.939 31.056 166.779 31.392 167.835 31.392C168.579 31.392 169.179 31.224 169.659 30.864C170.139 30.504 170.499 29.928 170.787 29.136H173.403ZM170.835 25.656C170.739 24.624 170.427 23.808 169.851 23.208C169.275 22.608 168.555 22.296 167.667 22.296C166.755 22.296 166.035 22.584 165.483 23.16C164.931 23.736 164.595 24.576 164.475 25.656H170.835ZM186.883 28.32C186.691 29.856 186.067 31.056 185.059 31.968C184.027 32.88 182.731 33.312 181.195 33.312C179.323 33.312 177.859 32.736 176.755 31.56C175.651 30.384 175.099 28.848 175.099 26.928C175.099 24.888 175.651 23.256 176.755 22.056C177.859 20.856 179.371 20.232 181.267 20.232C182.851 20.232 184.123 20.64 185.083 21.432C186.043 22.248 186.619 23.352 186.787 24.768H184.075C183.907 24 183.595 23.4 183.115 22.968C182.635 22.56 182.011 22.344 181.291 22.344C180.235 22.344 179.395 22.752 178.795 23.544C178.171 24.336 177.883 25.416 177.883 26.784C177.883 28.176 178.171 29.232 178.747 30C179.323 30.768 180.139 31.152 181.195 31.152C182.011 31.152 182.659 30.912 183.187 30.432C183.715 29.952 184.051 29.232 184.195 28.32H186.883ZM195.035 20.616V22.608H192.539V29.136C192.539 29.52 192.539 29.808 192.563 29.952C192.563 30.096 192.611 30.264 192.707 30.456C192.779 30.648 192.923 30.768 193.115 30.816C193.307 30.888 193.595 30.912 193.955 30.912C194.387 30.912 194.747 30.912 195.035 30.864V33.024C194.483 33.096 193.859 33.12 193.187 33.12C192.707 33.12 192.275 33.096 191.915 33.024C191.555 32.952 191.267 32.856 191.027 32.76C190.787 32.664 190.571 32.52 190.427 32.28C190.259 32.04 190.139 31.848 190.043 31.704C189.947 31.56 189.899 31.272 189.851 30.888C189.803 30.504 189.803 30.216 189.803 30.024V28.968V28.824V28.68V28.512V22.608H187.739V20.616H189.803V16.896H192.539V20.616H195.035ZM206.795 24.216H204.179C204.011 22.92 203.123 22.248 201.491 22.248C200.771 22.248 200.243 22.392 199.859 22.632C199.475 22.896 199.283 23.256 199.283 23.688C199.283 23.832 199.283 23.976 199.307 24.072C199.331 24.192 199.379 24.288 199.451 24.384C199.523 24.48 199.595 24.552 199.643 24.6C199.691 24.672 199.811 24.744 199.955 24.792C200.099 24.864 200.195 24.912 200.291 24.96C200.387 25.008 200.531 25.056 200.747 25.104C200.939 25.152 201.107 25.2 201.227 25.224C201.347 25.272 201.539 25.32 201.827 25.368C202.091 25.416 202.307 25.464 202.451 25.488C203.075 25.632 203.507 25.752 203.795 25.824C204.083 25.896 204.491 26.04 205.019 26.256C205.547 26.472 205.955 26.688 206.219 26.928C206.459 27.168 206.699 27.48 206.915 27.888C207.131 28.296 207.251 28.752 207.251 29.28C207.251 30.528 206.747 31.536 205.787 32.256C204.803 33 203.483 33.36 201.851 33.36C200.075 33.36 198.731 33 197.795 32.256C196.835 31.536 196.331 30.456 196.283 29.04H198.899C199.043 30.6 200.027 31.368 201.899 31.368C202.691 31.368 203.339 31.224 203.819 30.888C204.299 30.552 204.563 30.12 204.563 29.568C204.563 29.304 204.491 29.064 204.371 28.872C204.251 28.68 204.059 28.536 203.795 28.392C203.507 28.248 203.243 28.152 203.003 28.08C202.763 28.008 202.427 27.912 202.019 27.816L201.875 27.792C201.827 27.792 201.803 27.768 201.755 27.768C201.707 27.768 201.659 27.744 201.611 27.72C199.835 27.288 198.731 26.952 198.251 26.712C197.099 26.184 196.547 25.272 196.547 24C196.547 22.848 196.979 21.936 197.891 21.264C198.779 20.592 200.027 20.256 201.611 20.256C203.123 20.256 204.371 20.592 205.331 21.24C206.291 21.912 206.795 22.896 206.795 24.216Z" fill="black"/>
<defs>
<clipPath id="clip0_142_41">
<rect width="55" height="54" fill="white"/>
</clipPath>
</defs>
</svg>
