<svg width="136" height="50" viewBox="0 0 136 50" fill="none" xmlns="http://www.w3.org/2000/svg">
<g clip-path="url(#clip0_142_25)">
<path d="M102.99 25.3609V36.3615H107.491V26.0354C107.491 21.4364 113.743 21.4289 113.743 21.4289V16.9534L113.287 16.9815C112.676 17.0258 111.559 17.1295 110.614 17.3424L110.056 17.4758C106.353 18.4161 102.99 20.4067 102.99 25.3609ZM69.0625 16.7309C70.8158 16.7309 73.0065 17.7241 74.1992 19.4709C75.4342 17.8823 77.465 16.81 79.9744 16.7693C83.162 16.7284 87.1035 18.7149 87.1035 24.6728V36.3478H82.6017V24.6728C82.6017 22.6865 81.1671 21.2584 79.0197 21.2584C76.8723 21.2584 75.4365 22.6865 75.4365 24.6728V36.3478H70.9359V24.6728C70.9359 22.6865 69.5027 21.2584 67.3529 21.2584C65.203 21.2584 63.7289 22.6865 63.7289 24.6728V36.3478H58.9951V17.3227H63.7289V19.2337C64.9337 17.7718 66.6684 16.8388 68.7029 16.7397L69.0625 16.7309ZM97.4533 17.5649V36.3617H92.8757V17.5649H97.4533ZM95.164 14.5742C96.5752 14.5742 97.7194 13.4343 97.7194 12.0282C97.7194 10.6221 96.5752 9.48218 95.164 9.48218C93.7527 9.48218 92.6087 10.6221 92.6087 12.0282C92.6087 13.4343 93.7527 14.5742 95.164 14.5742ZM125.966 16.6902C120.424 16.6902 115.932 21.1658 115.932 26.6877C115.932 32.2095 120.424 36.6851 125.966 36.6851C131.508 36.6851 136 32.2095 136 26.6877C136 21.1658 131.508 16.6902 125.966 16.6902ZM125.966 32.1898C122.829 32.1898 120.285 29.6562 120.285 26.5296C120.285 23.4029 122.828 20.8693 125.966 20.8693C129.104 20.8693 131.647 23.4029 131.647 26.5296C131.647 29.6562 129.104 32.1898 125.966 32.1898Z" fill="black"/>
<path d="M0 12.4356C0 5.56762 5.56066 0 12.4201 0H37.2603C44.1197 0 49.6804 5.56762 49.6804 12.4356V37.3069C49.6804 44.175 44.1197 49.7425 37.2603 49.7425H12.4201C5.56066 49.7425 0 44.175 0 37.3069V12.4356Z" fill="black"/>
<path d="M33.0288 9.48218H28.5189L32.2771 16.0936L24.009 9.48218H19.4993L23.6333 17.563L14.9894 9.48218H10.4795L14.9894 19.7682L10.4795 40.3381H14.9894L23.6333 18.2987L19.4993 40.3381H24.009L32.2771 16.8293L28.5189 40.3381H33.0288L41.2968 14.6242L33.0288 9.48218Z" fill="white"/>
</g>
<defs>
<clipPath id="clip0_142_25">
<rect width="136" height="50" fill="white"/>
</clipPath>
</defs>
</svg>
