<svg viewBox="0 0 517 62" fill="none" xmlns="http://www.w3.org/2000/svg">
<g style="mix-blend-mode:exclusion">
<path d="M0.901348 0.656616H11.6944L14.8543 42.5156C14.9638 43.0627 15.0458 43.7193 15.1006 44.4854C15.1826 45.2514 15.2784 46.0859 15.3878 46.9887H15.5109C15.593 46.0859 15.6751 45.2514 15.7572 44.4854C15.8666 43.692 15.976 43.0354 16.0855 42.5156L18.9992 0.656616H29.1767L22.1181 60.6134H8.41133L0.901348 0.656616ZM31.0234 60.4082V0.656616H41.5291V50.6001H51.5425V60.4082H31.0234ZM52.9575 60.4082L60.5495 0.656616H75.3643L82.587 60.4082H72.2454L69.0444 26.921C68.8803 25.6078 68.6614 23.679 68.3878 21.1347C68.1142 18.5629 67.9227 16.8941 67.8133 16.128H67.6491C67.5123 16.8941 67.3345 18.5629 67.1156 21.1347C66.8968 23.7064 66.7052 25.6352 66.5411 26.921L63.7095 60.4082H52.9575ZM59.4004 47.5222L59.8519 40.1353H76.3903L76.8417 47.5222H59.4004ZM84.7473 60.4082V0.656616H116.265C124.992 0.656616 132.064 3.07787 137.481 7.92037C142.898 12.7355 145.607 20.1361 145.607 30.122V30.4503C145.607 40.2995 142.857 47.7548 137.358 52.8161C131.886 57.8775 124.855 60.4082 116.265 60.4082H84.7473ZM97.2229 51.8723H114.787C119.821 51.8723 124.048 50.135 127.468 46.6604C130.915 43.1585 132.639 37.7825 132.639 30.5324V30.2041C132.639 23.1455 130.97 17.9474 127.632 14.6096C124.322 11.2445 120.04 9.5619 114.787 9.5619H97.2229V51.8723ZM148.297 60.4082V0.656616H158.926V60.4082H148.297ZM162.866 47.1939V40.2995H172.838V46.9066C172.838 49.1774 173.043 50.7779 173.454 51.7081C173.864 52.6383 174.685 53.1034 175.916 53.1034C177.12 53.1034 177.913 52.6246 178.296 51.6671C178.707 50.6822 178.912 48.685 178.912 45.6755C178.912 42.8849 178.57 40.7099 177.886 39.1504C177.229 37.591 175.752 35.7579 173.454 33.6513C169.541 30.7513 166.901 27.7418 165.533 24.6229C164.193 21.4767 163.481 18.2073 163.399 14.8148C163.317 9.53454 164.384 5.74535 166.6 3.44721C168.816 1.14907 172.072 5.24521e-06 176.367 5.24521e-06C180.69 5.24521e-06 183.809 1.13539 185.724 3.40617C187.667 5.67695 188.638 8.71378 188.638 12.5166V19.329H179.322V13.3374C179.103 11.7232 178.871 10.4784 178.625 9.60294C178.378 8.72746 177.708 8.28972 176.614 8.28972C175.519 8.28972 174.822 8.7001 174.521 9.52086C174.22 10.3143 174.069 11.9832 174.069 14.5275C174.069 16.3058 174.575 17.9747 175.588 19.5342C176.6 21.0663 177.859 22.5847 179.363 24.0894C183.139 26.7706 185.765 29.6159 187.243 32.6254C188.747 35.6348 189.5 39.6702 189.5 44.7316C189.5 50.2307 188.501 54.3209 186.504 57.002C184.534 59.6832 181.101 61.0238 176.203 61.0238C171.279 61.0238 167.818 59.9568 165.821 57.8228C163.851 55.6888 162.866 52.1458 162.866 47.1939ZM192.865 60.4082V0.656616H203.371V50.6001H213.384V60.4082H192.865ZM213.958 60.4082L221.55 0.656616H236.365L243.588 60.4082H233.246L230.045 26.921C229.881 25.6078 229.662 23.679 229.389 21.1347C229.115 18.5629 228.924 16.8941 228.814 16.128H228.65C228.513 16.8941 228.335 18.5629 228.117 21.1347C227.898 23.7064 227.706 25.6352 227.542 26.921L224.71 60.4082H213.958ZM220.401 47.5222L220.853 40.1353H237.391L237.843 47.5222H220.401ZM241.7 0.656616H252.493L255.653 42.5156C255.763 43.0627 255.845 43.7193 255.899 44.4854C255.982 45.2514 256.077 46.0859 256.187 46.9887H256.31C256.392 46.0859 256.474 45.2514 256.556 44.4854C256.665 43.692 256.775 43.0354 256.884 42.5156L259.798 0.656616H269.976L262.917 60.6134H249.21L241.7 0.656616Z" fill="white"/>
<path d="M272.398 31.3518C272.398 28.004 273.525 25.2405 275.778 23.0612C278.041 20.882 280.897 19.7923 284.347 19.7923C287.889 19.7923 290.797 20.882 293.069 23.0612C295.341 25.2405 296.477 28.004 296.477 31.3518C296.477 34.7088 295.341 37.4816 293.069 39.6702C290.797 41.8495 287.889 42.9391 284.347 42.9391C280.897 42.9391 278.041 41.8495 275.778 39.6702C273.525 37.4816 272.398 34.7088 272.398 31.3518ZM274.721 31.3518C274.721 34.1431 275.63 36.4059 277.447 38.14C279.265 39.8649 281.57 40.7274 284.361 40.7274C287.189 40.7274 289.526 39.8649 291.372 38.14C293.217 36.4059 294.14 34.1431 294.14 31.3518C294.14 28.5697 293.217 26.3209 291.372 24.6053C289.526 22.8804 287.189 22.018 284.361 22.018C281.57 22.018 279.265 22.8804 277.447 24.6053C275.63 26.3209 274.721 28.5697 274.721 31.3518ZM284.138 33.1184H283.137V37.7784H278.992V24.7861H284.764C286.563 24.7861 287.964 25.1385 288.965 25.8433C289.976 26.5388 290.481 27.5589 290.481 28.9036C290.481 29.9051 290.226 30.7537 289.716 31.4492C289.216 32.1354 288.515 32.5666 287.616 32.7428C287.811 32.8819 287.982 33.0303 288.131 33.188C288.288 33.3363 288.437 33.5264 288.576 33.7583L290.746 37.2915V37.7784H286.6L284.138 33.1184ZM284.57 27.6377H283.123V30.4059H284.667C285.196 30.4059 285.594 30.2993 285.863 30.086C286.132 29.8634 286.267 29.5203 286.267 29.0566C286.267 28.5558 286.137 28.1942 285.877 27.9716C285.627 27.749 285.191 27.6377 284.57 27.6377Z" fill="white"/>
<path d="M307.684 60.4082V39.3556L298.573 0.656616H309.653L313.183 24.7871C313.21 25.1701 313.292 25.813 313.429 26.7159C313.566 27.5913 313.662 28.1932 313.716 28.5215H313.839C313.867 28.1932 313.949 27.5777 314.086 26.6748C314.222 25.772 314.304 25.1427 314.332 24.7871L317.697 0.656616H327.669L318.313 39.3146V60.4082H307.684ZM322.132 60.4082L329.724 0.656616H344.539L351.762 60.4082H341.42L338.219 26.921C338.055 25.6078 337.836 23.679 337.563 21.1347C337.289 18.5629 337.098 16.8941 336.988 16.128H336.824C336.687 16.8941 336.509 18.5629 336.291 21.1347C336.072 23.7064 335.88 25.6352 335.716 26.921L332.884 60.4082H322.132ZM328.575 47.5222L329.027 40.1353H345.565L346.017 47.5222H328.575ZM350.288 60.4082L352.217 0.656616H364.733L370.397 37.9603C370.479 38.2065 370.547 38.5759 370.602 39.0684C370.684 39.5334 370.739 39.8481 370.766 40.0122H370.93C370.93 39.8481 370.971 39.5334 371.053 39.0684C371.163 38.5759 371.245 38.1929 371.299 37.9193L376.347 0.656616H388.987L390.916 60.4082H380.451L380.164 29.2192C380.164 28.9456 380.164 27.906 380.164 26.1003C380.164 24.2672 380.164 23.1182 380.164 22.6531H379.958C379.904 23.1182 379.808 24.2536 379.671 26.0592C379.534 27.8376 379.452 28.8909 379.425 29.2192L375.773 60.4082H366.005L361.943 29.0961C361.915 28.7678 361.833 27.7145 361.696 25.9361C361.587 24.1305 361.532 23.0771 361.532 22.7762H361.286C361.313 23.0771 361.313 24.1305 361.286 25.9361C361.259 27.7145 361.245 28.7678 361.245 29.0961L360.917 60.4082H350.288ZM389.359 60.4082L396.952 0.656616H411.766L418.989 60.4082H408.647L405.446 26.921C405.282 25.6078 405.063 23.679 404.79 21.1347C404.516 18.5629 404.325 16.8941 404.215 16.128H404.051C403.914 16.8941 403.737 18.5629 403.518 21.1347C403.299 23.7064 403.107 25.6352 402.943 26.921L400.111 60.4082H389.359ZM395.802 47.5222L396.254 40.1353H412.792L413.244 47.5222H395.802ZM416.571 42.8028V18.221C416.571 12.0926 417.706 7.52367 419.977 4.5142C422.248 1.50474 425.736 5.24521e-06 430.442 5.24521e-06C434.819 5.24521e-06 438.075 1.23115 440.209 3.69344C442.343 6.15573 443.41 9.64398 443.41 14.1582V25.7309H433.151V12.9681C433.151 11.8464 432.945 10.8478 432.535 9.97228C432.152 9.06944 431.482 8.61802 430.524 8.61802C429.457 8.61802 428.718 9.15152 428.308 10.2185C427.925 11.2855 427.733 12.6398 427.733 14.2813V46.7015C427.733 48.9996 427.925 50.5727 428.308 51.4208C428.691 52.269 429.43 52.693 430.524 52.693C431.755 52.693 432.508 52.2416 432.781 51.3388C433.055 50.4086 433.205 49.2458 433.233 47.8505V35.7032H443.451V45.4293C443.451 50.4633 442.343 54.3209 440.127 57.002C437.938 59.6832 434.696 61.0238 430.401 61.0238C425.859 61.0238 422.412 59.5874 420.059 56.7148C417.734 53.8421 416.571 49.2048 416.571 42.8028ZM442.634 60.4082V0.656616H453.098V24.2946H458.844V0.656616H469.308V60.4082H458.844V34.8004H453.098V60.4082H442.634ZM469.886 60.4082V0.656616H490.693V10.4647H479.735V25.0333H489.297V34.8004H479.735V50.6411H491.062V60.4082H469.886ZM487.782 0.656616H498.575L501.735 42.5156C501.845 43.0627 501.927 43.7193 501.981 44.4854C502.063 45.2514 502.159 46.0859 502.269 46.9887H502.392C502.474 46.0859 502.556 45.2514 502.638 44.4854C502.747 43.692 502.857 43.0354 502.966 42.5156L505.88 0.656616H516.057L508.999 60.6134H495.292L487.782 0.656616Z" fill="white"/>
</g>
</svg>
