<svg width="192" height="54" viewBox="0 0 192 54" fill="none" xmlns="http://www.w3.org/2000/svg">
<g clip-path="url(#clip0_142_19)">
<path d="M41.3438 0H12.6562C5.6664 0 0 5.6664 0 12.6562V41.3438C0 48.3336 5.6664 54 12.6562 54H41.3438C48.3336 54 54 48.3336 54 41.3438V12.6562C54 5.6664 48.3336 0 41.3438 0Z" fill="black"/>
<path d="M12.1504 37.5553V14.4028C12.1504 14.2453 12.2179 14.1553 12.3754 14.1553C12.7579 14.1553 13.1179 14.1553 13.6354 14.1328C14.1754 14.1103 14.7379 14.1103 15.3454 14.0878C15.9529 14.0653 16.6054 14.0653 17.3029 14.0428C18.0004 14.0203 18.6754 14.0203 19.3504 14.0203C21.1954 14.0203 22.7253 14.2453 23.9854 14.7178C25.1104 15.1003 26.1454 15.7303 27.0004 16.5628C27.7203 17.2828 28.2829 18.1603 28.6429 19.1278C28.9804 20.0728 29.1604 21.0403 29.1604 22.0529C29.1604 23.9878 28.7104 25.5853 27.8104 26.8454C26.9103 28.1053 25.6504 29.0503 24.1879 29.5903C22.6578 30.1529 20.9704 30.3554 19.1254 30.3554C18.5854 30.3554 18.2254 30.3554 18.0004 30.3328C17.7754 30.3103 17.4604 30.3103 17.0329 30.3103V37.5328C17.0554 37.6903 16.9429 37.8253 16.7854 37.8479C16.7629 37.8479 16.7404 37.8479 16.6954 37.8479H12.4204C12.2404 37.8479 12.1504 37.7578 12.1504 37.5553ZM17.0554 18.4978V26.0578C17.3704 26.0803 17.6629 26.1029 17.9329 26.1029H19.1254C20.0029 26.1029 20.8804 25.9679 21.7128 25.6979C22.4329 25.4954 23.0628 25.0678 23.5579 24.5053C24.0304 23.9429 24.2554 23.1778 24.2554 22.1879C24.2778 21.4903 24.0979 20.7928 23.7378 20.1853C23.3554 19.6003 22.8154 19.1503 22.1629 18.9028C21.3304 18.5653 20.4304 18.4303 19.5079 18.4528C18.9229 18.4528 18.4054 18.4528 17.9779 18.4753C17.5279 18.4528 17.2129 18.4753 17.0554 18.4978Z" fill="white"/>
<path d="M43.1999 24.6854C42.5249 24.3253 41.8049 24.0779 41.0399 23.9203C40.2073 23.7404 39.3749 23.6277 38.5198 23.6277C38.0699 23.6054 37.5974 23.6729 37.1698 23.7853C36.8774 23.8528 36.6298 24.0104 36.4724 24.2352C36.3598 24.4154 36.2923 24.6402 36.2923 24.8427C36.2923 25.0452 36.3824 25.2477 36.5174 25.4279C36.7199 25.6753 36.9899 25.8778 37.2824 26.0354C37.7999 26.3054 38.3399 26.5528 38.8799 26.7779C40.0949 27.1829 41.2649 27.7452 42.3449 28.4202C43.0874 28.8927 43.6949 29.5228 44.1223 30.2879C44.4824 31.0078 44.6623 31.7952 44.6399 32.6052C44.6623 33.6629 44.3474 34.7203 43.7624 35.5978C43.1324 36.4979 42.2549 37.1952 41.2424 37.6002C40.1398 38.0727 38.7898 38.3204 37.1698 38.3204C36.1349 38.3204 35.1224 38.2303 34.1099 38.0278C33.3223 37.8928 32.5349 37.6454 31.8149 37.3079C31.6574 37.2178 31.5449 37.0602 31.5673 36.8803V32.9653C31.5673 32.8978 31.5899 32.8077 31.6574 32.7628C31.7249 32.7179 31.7924 32.7402 31.8599 32.7854C32.7374 33.3028 33.6598 33.6629 34.6499 33.8877C35.5049 34.1128 36.4049 34.2252 37.3048 34.2252C38.1599 34.2252 38.7674 34.1128 39.1724 33.9103C39.5323 33.7527 39.7799 33.3703 39.7799 32.9653C39.7799 32.6504 39.5998 32.3578 39.2399 32.0652C38.8799 31.7729 38.1374 31.4354 37.0348 31.0078C35.8873 30.6028 34.8299 30.0628 33.8399 29.3878C33.1424 28.8927 32.5574 28.2403 32.1299 27.4752C31.7698 26.7553 31.5899 25.9679 31.6124 25.1802C31.6124 24.2129 31.8824 23.2902 32.3773 22.4579C32.9399 21.5578 33.7724 20.8378 34.7398 20.3878C35.7974 19.8478 37.1249 19.6003 38.7223 19.6003C39.6449 19.6003 40.5899 19.6678 41.5124 19.8028C42.1874 19.8928 42.8398 20.0728 43.4473 20.3203C43.5374 20.3428 43.6274 20.4328 43.6724 20.5228C43.6949 20.6128 43.7173 20.7028 43.7173 20.7928V24.4603C43.7173 24.5504 43.6724 24.6402 43.6049 24.6854C43.4024 24.7303 43.2899 24.7303 43.1999 24.6854Z" fill="white"/>
</g>
<path d="M72.1683 15.912H79.5843C81.4083 15.912 82.8723 16.368 83.9283 17.232C84.9843 18.096 85.5363 19.392 85.5363 21.12C85.5363 22.752 85.0323 24.048 84.0483 25.008C83.0403 25.968 81.6963 26.424 79.9923 26.424H75.1683V33H72.1683V15.912ZM75.1683 18.408V24H79.3443C81.5043 24 82.6083 23.064 82.6083 21.192C82.6083 19.344 81.4323 18.408 79.0803 18.408H75.1683ZM90.5041 15.912V22.32C91.4161 20.976 92.7121 20.304 94.4161 20.304C95.7601 20.304 96.7921 20.688 97.5601 21.408C98.3041 22.128 98.6881 23.208 98.6881 24.6V33H95.9281V25.488C95.9281 24.552 95.7601 23.832 95.4241 23.328C95.0881 22.848 94.4641 22.584 93.5281 22.584C92.4721 22.584 91.7041 22.944 91.2241 23.616C90.7441 24.312 90.5041 25.224 90.5041 26.352V33H87.7921V15.912H90.5041ZM107.285 20.256C109.157 20.256 110.669 20.856 111.797 22.032C112.901 23.232 113.477 24.816 113.477 26.808C113.477 28.824 112.901 30.432 111.797 31.608C110.693 32.808 109.181 33.384 107.285 33.384C105.341 33.384 103.805 32.808 102.677 31.608C101.525 30.432 100.973 28.824 100.973 26.808C100.973 24.816 101.525 23.232 102.677 22.032C103.829 20.856 105.365 20.256 107.285 20.256ZM107.237 22.416C106.133 22.416 105.293 22.824 104.669 23.592C104.045 24.384 103.733 25.464 103.733 26.808C103.733 28.2 104.045 29.304 104.669 30.072C105.293 30.864 106.157 31.248 107.261 31.248C108.317 31.248 109.157 30.864 109.781 30.072C110.405 29.28 110.717 28.176 110.717 26.784C110.717 25.44 110.405 24.36 109.781 23.592C109.157 22.824 108.317 22.416 107.237 22.416ZM121.824 20.616V22.608H119.328V29.136C119.328 29.52 119.328 29.808 119.352 29.952C119.352 30.096 119.4 30.264 119.496 30.456C119.568 30.648 119.712 30.768 119.904 30.816C120.096 30.888 120.384 30.912 120.744 30.912C121.176 30.912 121.536 30.912 121.824 30.864V33.024C121.272 33.096 120.648 33.12 119.976 33.12C119.496 33.12 119.064 33.096 118.704 33.024C118.344 32.952 118.056 32.856 117.816 32.76C117.576 32.664 117.36 32.52 117.216 32.28C117.048 32.04 116.928 31.848 116.832 31.704C116.736 31.56 116.688 31.272 116.64 30.888C116.592 30.504 116.592 30.216 116.592 30.024V28.968V28.824V28.68V28.512V22.608H114.528V20.616H116.592V16.896H119.328V20.616H121.824ZM129.504 20.256C131.376 20.256 132.888 20.856 134.016 22.032C135.12 23.232 135.696 24.816 135.696 26.808C135.696 28.824 135.12 30.432 134.016 31.608C132.912 32.808 131.4 33.384 129.504 33.384C127.56 33.384 126.024 32.808 124.896 31.608C123.744 30.432 123.192 28.824 123.192 26.808C123.192 24.816 123.744 23.232 124.896 22.032C126.048 20.856 127.584 20.256 129.504 20.256ZM129.456 22.416C128.352 22.416 127.512 22.824 126.888 23.592C126.264 24.384 125.952 25.464 125.952 26.808C125.952 28.2 126.264 29.304 126.888 30.072C127.512 30.864 128.376 31.248 129.48 31.248C130.536 31.248 131.376 30.864 132 30.072C132.624 29.28 132.936 28.176 132.936 26.784C132.936 25.44 132.624 24.36 132 23.592C131.376 22.824 130.536 22.416 129.456 22.416ZM147.811 24.216H145.195C145.027 22.92 144.139 22.248 142.507 22.248C141.787 22.248 141.259 22.392 140.875 22.632C140.491 22.896 140.299 23.256 140.299 23.688C140.299 23.832 140.299 23.976 140.323 24.072C140.347 24.192 140.395 24.288 140.467 24.384C140.539 24.48 140.611 24.552 140.659 24.6C140.707 24.672 140.827 24.744 140.971 24.792C141.115 24.864 141.211 24.912 141.307 24.96C141.403 25.008 141.547 25.056 141.763 25.104C141.955 25.152 142.123 25.2 142.243 25.224C142.363 25.272 142.555 25.32 142.843 25.368C143.107 25.416 143.323 25.464 143.467 25.488C144.091 25.632 144.523 25.752 144.811 25.824C145.099 25.896 145.507 26.04 146.035 26.256C146.563 26.472 146.971 26.688 147.235 26.928C147.475 27.168 147.715 27.48 147.931 27.888C148.147 28.296 148.267 28.752 148.267 29.28C148.267 30.528 147.763 31.536 146.803 32.256C145.819 33 144.499 33.36 142.867 33.36C141.091 33.36 139.747 33 138.811 32.256C137.851 31.536 137.347 30.456 137.299 29.04H139.915C140.059 30.6 141.043 31.368 142.915 31.368C143.707 31.368 144.355 31.224 144.835 30.888C145.315 30.552 145.579 30.12 145.579 29.568C145.579 29.304 145.507 29.064 145.387 28.872C145.267 28.68 145.075 28.536 144.811 28.392C144.523 28.248 144.259 28.152 144.019 28.08C143.779 28.008 143.443 27.912 143.035 27.816L142.891 27.792C142.843 27.792 142.819 27.768 142.771 27.768C142.723 27.768 142.675 27.744 142.627 27.72C140.851 27.288 139.747 26.952 139.267 26.712C138.115 26.184 137.563 25.272 137.563 24C137.563 22.848 137.995 21.936 138.907 21.264C139.795 20.592 141.043 20.256 142.627 20.256C144.139 20.256 145.387 20.592 146.347 21.24C147.307 21.912 147.811 22.896 147.811 24.216ZM153.176 15.912V22.32C154.088 20.976 155.384 20.304 157.088 20.304C158.432 20.304 159.464 20.688 160.232 21.408C160.976 22.128 161.36 23.208 161.36 24.6V33H158.6V25.488C158.6 24.552 158.432 23.832 158.096 23.328C157.76 22.848 157.136 22.584 156.2 22.584C155.144 22.584 154.376 22.944 153.896 23.616C153.416 24.312 153.176 25.224 153.176 26.352V33H150.464V15.912H153.176ZM169.957 20.256C171.829 20.256 173.341 20.856 174.469 22.032C175.573 23.232 176.149 24.816 176.149 26.808C176.149 28.824 175.573 30.432 174.469 31.608C173.365 32.808 171.853 33.384 169.957 33.384C168.013 33.384 166.477 32.808 165.349 31.608C164.197 30.432 163.645 28.824 163.645 26.808C163.645 24.816 164.197 23.232 165.349 22.032C166.501 20.856 168.037 20.256 169.957 20.256ZM169.909 22.416C168.805 22.416 167.965 22.824 167.341 23.592C166.717 24.384 166.405 25.464 166.405 26.808C166.405 28.2 166.717 29.304 167.341 30.072C167.965 30.864 168.829 31.248 169.933 31.248C170.989 31.248 171.829 30.864 172.453 30.072C173.077 29.28 173.389 28.176 173.389 26.784C173.389 25.44 173.077 24.36 172.453 23.592C171.829 22.824 170.989 22.416 169.909 22.416ZM181.064 20.616V22.272C181.88 20.928 183.224 20.256 185.096 20.256C186.8 20.256 188.168 20.856 189.2 22.056C190.208 23.256 190.736 24.864 190.736 26.856C190.736 28.824 190.232 30.384 189.224 31.56C188.216 32.736 186.896 33.312 185.24 33.312C183.464 33.312 182.12 32.664 181.208 31.368V37.584H178.496V20.616H181.064ZM184.544 22.464C183.464 22.464 182.624 22.848 182.024 23.616C181.4 24.384 181.112 25.464 181.112 26.808C181.112 28.152 181.4 29.208 182.024 29.976C182.648 30.744 183.488 31.128 184.592 31.128C185.624 31.128 186.44 30.744 187.064 29.976C187.664 29.208 187.976 28.176 187.976 26.856C187.976 25.512 187.664 24.456 187.04 23.664C186.416 22.872 185.6 22.464 184.544 22.464Z" fill="black"/>
<defs>
<clipPath id="clip0_142_19">
<rect width="54" height="54" fill="white"/>
</clipPath>
</defs>
</svg>
