<svg width="870" height="285" viewBox="0 0 870 285" fill="none" xmlns="http://www.w3.org/2000/svg">
<path d="M36.7055 280.604L0 5.12853H67.171L79.4673 159.351C79.5897 161.183 79.8344 164.418 80.2014 169.058C80.5685 173.699 80.752 176.934 80.752 178.766H80.9355C81.0579 176.934 81.1802 173.699 81.3026 169.058C81.5473 164.418 81.7308 161.244 81.8532 159.534L95.8012 5.12853H153.062L166.643 159.168C166.765 160.267 167.01 163.503 167.377 168.875C167.744 174.248 167.927 177.423 167.927 178.4H168.111C168.111 177.301 168.172 174.126 168.295 168.875C168.539 163.503 168.723 160.267 168.845 159.168L181.141 5.12853H245.927L209.772 280.604H141.5L124.248 123.451C124.126 122.596 123.881 119.971 123.514 115.575C123.269 111.057 123.147 108.31 123.147 107.333H122.963C122.963 108.31 122.841 111.057 122.596 115.575C122.352 119.971 122.168 122.596 122.046 123.451L105.712 280.604H36.7055Z" fill="white"/>
<path d="M257.21 144.148V138.104C257.21 92.0694 270.363 57.5739 296.668 34.6176C322.974 11.5392 355.519 0 394.305 0C433.09 0 465.758 11.5392 492.308 34.6176C518.859 57.5739 532.134 92.0694 532.134 138.104V144.148C532.134 191.526 518.859 226.877 492.308 250.199C465.758 273.4 433.09 285 394.305 285C355.519 285 322.974 273.4 296.668 250.199C270.363 226.877 257.21 191.526 257.21 144.148ZM314.654 151.292C314.654 177.667 322.056 197.326 336.861 210.27C351.665 223.213 370.874 229.807 394.488 230.051C417.98 230.296 437.189 223.824 452.116 210.636C467.165 197.449 474.69 177.789 474.69 151.658V132.06C474.69 106.783 467.226 87.9788 452.299 75.6459C437.372 63.1909 418.102 56.8413 394.488 56.597C370.752 56.2307 351.482 62.3972 336.677 75.0964C321.995 87.7956 314.654 106.722 314.654 131.877V151.292Z" fill="white"/>
<path d="M549.29 279.871V5.12853H635.731C654.206 5.12853 669.072 11.5392 680.328 24.3605C691.585 37.0598 697.213 59.955 697.213 93.0463C697.213 125.527 690.973 148.972 678.493 163.38C666.136 177.667 651.453 184.81 634.446 184.81H614.075V279.871H549.29ZM614.075 137.738H621.416C625.331 137.738 628.145 135.174 629.858 130.045C631.694 124.794 632.611 114.049 632.611 97.8085C632.611 79.4923 631.694 68.1362 629.858 63.7404C628.145 59.2224 625.331 56.9634 621.416 56.9634H614.075V137.738ZM637.016 279.871L615.91 158.618L672.437 145.064L705.655 279.871H637.016Z" fill="white"/>
<path d="M711.249 279.871V5.12853H776.034V84.4377L802.646 5.12853H866.146L776.034 208.805V279.871H711.249ZM798.791 279.871L768.693 157.702L810.17 73.9974L870 279.871H798.791Z" fill="white"/>
</svg>
