<svg width="208" height="54" viewBox="0 0 208 54" fill="none" xmlns="http://www.w3.org/2000/svg">
<g clip-path="url(#clip0_152_34)">
<path d="M45.2607 0C46.54 -0.00117125 47.8072 0.25173 48.9893 0.744141C50.1714 1.23659 51.2458 1.9592 52.1504 2.87012C53.0548 3.78094 53.7718 4.86253 54.2607 6.05273C54.7498 7.24318 55.0012 8.51934 55 9.80762V44.1924C55.0012 45.4807 54.7498 46.7568 54.2607 47.9473C53.7718 49.1375 53.0548 50.2191 52.1504 51.1299C51.2458 52.0408 50.1714 52.7634 48.9893 53.2559C47.8072 53.7483 46.54 54.0012 45.2607 54H9.73926C8.46001 54.0012 7.19285 53.7483 6.01074 53.2559C4.82863 52.7634 3.7542 52.0408 2.84961 51.1299C1.94519 50.2191 1.22824 49.1375 0.739258 47.9473C0.250234 46.7568 -0.00119609 45.4807 0 44.1924V9.80762C-0.00119547 8.51934 0.250235 7.24318 0.739258 6.05273C1.22824 4.86253 1.94519 3.78094 2.84961 2.87012C3.7542 1.9592 4.82862 1.23659 6.01074 0.744141C7.19285 0.25173 8.46001 -0.00117052 9.73926 0H45.2607ZM39.3945 19.4072C37.9279 19.4072 36.6444 19.5923 35.5674 20.123C34.4979 20.6456 33.5518 21.3933 32.7939 22.3154C32.0244 23.2479 31.4406 24.3213 31.0752 25.4766C30.344 27.7603 30.3129 30.2134 30.9844 32.5156C31.302 33.6209 31.84 34.6492 32.5654 35.5381C33.3419 36.4889 34.3318 37.2403 35.4531 37.7305C36.6447 38.2612 38.1111 38.5381 39.8525 38.5381C40.9438 38.5616 42.0346 38.4692 43.1064 38.2617C43.8955 38.126 44.6655 37.8934 45.3984 37.5693C45.4627 37.5276 45.5172 37.472 45.5586 37.4072C45.5849 37.3173 45.6005 37.2246 45.6045 37.1309V33.5996C45.6044 33.3695 45.5361 33.3232 45.4219 33.415C44.7662 33.6754 44.0807 33.8541 43.3818 33.9463C42.5964 34.1004 41.7991 34.1854 40.999 34.2002C39.9918 34.2188 38.9917 34.0219 38.0654 33.623C37.381 33.3434 36.7976 32.8603 36.3926 32.2383C36.0112 31.6134 35.7683 30.9128 35.6816 30.1846H42.9463C43.542 30.1846 44.0921 30.2773 44.6191 30.2773C45.0631 30.2817 45.5071 30.2584 45.9482 30.208C46.3149 30.1849 46.5676 30.1611 46.7051 30.1611C46.7848 30.1568 46.8604 30.1249 46.9189 30.0703C46.9776 30.0155 47.0153 29.9413 47.0254 29.8613C47.0483 29.6537 47.0943 29.3308 47.1172 28.8926C47.1401 28.4541 47.1631 27.9689 47.1631 27.415C47.166 26.4595 47.0189 25.509 46.7275 24.5996C46.4272 23.6479 45.9616 22.7568 45.3525 21.9688C44.711 21.1662 43.885 20.5328 42.9463 20.123C41.8293 19.6235 40.6164 19.3787 39.3945 19.4072ZM14.7588 13.8926C14.7022 13.9038 14.6521 13.9364 14.6182 13.9834C14.5842 14.0305 14.5683 14.0887 14.5752 14.1465C14.5759 14.6496 14.5307 15.152 14.4385 15.6465C14.3469 15.9232 14.2777 16.1307 14.209 16.3613L6.83008 37.6611C6.76133 37.9381 6.82995 38.0771 7.08203 38.0771H11.3906C11.49 38.0876 11.5895 38.0597 11.6699 38C11.7504 37.9403 11.8057 37.8527 11.8252 37.7539L13.5674 32.3076H22.0928L23.9717 37.8457C23.9934 37.9247 24.0423 37.9936 24.1094 38.04C24.1763 38.0863 24.257 38.1074 24.3379 38.0996H29.1279C29.3569 38.0995 29.4252 37.9842 29.3564 37.7305L20.9922 14.0771C20.9693 13.9618 20.8548 13.8926 20.6943 13.8926H14.7588ZM17.7842 18.0928C17.9445 18.6465 18.1048 19.2235 18.2881 19.8926C18.4714 20.5617 18.6781 21.231 18.9072 21.9463C19.1364 22.6616 19.3651 23.3771 19.5713 24.0693C19.7775 24.7616 19.9842 25.4537 20.1904 26.0537C20.3967 26.6537 20.5803 27.2312 20.7178 27.7158H14.8965C15.2402 26.7466 15.6074 25.6613 15.9053 24.4844C16.2719 23.3307 16.6153 22.1769 16.959 21.0693C17.272 20.0921 17.5323 19.0984 17.7383 18.0928H17.7842ZM39.2344 23.4004C39.8923 23.381 40.5389 23.5771 41.0762 23.96C41.6135 24.3429 42.0123 24.892 42.2129 25.5234C42.3048 25.7985 42.3515 26.0868 42.3506 26.377V26.6074C42.1932 26.7127 42.0116 26.7762 41.8232 26.792C41.5483 26.815 41.1131 26.8154 40.5176 26.8154H35.6816C35.7476 26.2353 35.9192 25.6725 36.1865 25.1543C36.4722 24.597 36.9114 24.1345 37.4521 23.8232C37.993 23.512 38.6124 23.3653 39.2344 23.4004Z" fill="black"/>
</g>
<path d="M80.6156 15.888L87.2156 33H83.9996L82.3676 28.464H75.5996L73.9196 33H70.8236L77.4236 15.888H80.6156ZM81.5756 26.208L79.0316 19.008L76.3676 26.208H81.5756ZM94.6074 15.888V18C94.0794 17.952 93.6714 17.928 93.4074 17.928C92.8314 17.928 92.4714 18.048 92.2794 18.24C92.0874 18.432 91.9914 18.84 91.9914 19.416V20.616H94.3434V22.608H92.0154V33H89.3034V22.608H87.2634V20.616H89.3034V19.632C89.3034 18.336 89.5674 17.376 90.1434 16.752C90.6954 16.128 91.6314 15.816 92.9754 15.816C93.5034 15.816 94.0554 15.84 94.6074 15.888ZM102.082 20.616V22.608H99.5858V29.136C99.5858 29.52 99.5858 29.808 99.6098 29.952C99.6098 30.096 99.6578 30.264 99.7538 30.456C99.8258 30.648 99.9698 30.768 100.162 30.816C100.354 30.888 100.642 30.912 101.002 30.912C101.434 30.912 101.794 30.912 102.082 30.864V33.024C101.53 33.096 100.906 33.12 100.234 33.12C99.7538 33.12 99.3218 33.096 98.9618 33.024C98.6018 32.952 98.3138 32.856 98.0738 32.76C97.8338 32.664 97.6178 32.52 97.4738 32.28C97.3058 32.04 97.1858 31.848 97.0898 31.704C96.9938 31.56 96.9458 31.272 96.8978 30.888C96.8498 30.504 96.8498 30.216 96.8498 30.024V28.968V28.824V28.68V28.512V22.608H94.7858V20.616H96.8498V16.896H99.5858V20.616H102.082ZM115.114 29.136C114.802 30.48 114.13 31.536 113.122 32.28C112.114 33.048 110.89 33.408 109.498 33.408C107.626 33.408 106.138 32.808 105.034 31.608C103.93 30.408 103.402 28.848 103.402 26.952C103.402 25.032 103.954 23.424 105.082 22.152C106.21 20.904 107.65 20.256 109.402 20.256C111.202 20.256 112.642 20.88 113.698 22.128C114.754 23.376 115.282 25.056 115.282 27.192V27.48H106.138C106.162 28.728 106.474 29.712 107.074 30.384C107.65 31.056 108.49 31.392 109.546 31.392C110.29 31.392 110.89 31.224 111.37 30.864C111.85 30.504 112.21 29.928 112.498 29.136H115.114ZM112.546 25.656C112.45 24.624 112.138 23.808 111.562 23.208C110.986 22.608 110.266 22.296 109.378 22.296C108.466 22.296 107.746 22.584 107.194 23.16C106.642 23.736 106.306 24.576 106.186 25.656H112.546ZM124.37 20.376V22.992C123.89 22.944 123.554 22.92 123.41 22.92C121.01 22.92 119.834 24.48 119.834 27.552V33H117.122V20.616H119.69V23.088C120.554 21.264 121.946 20.328 123.842 20.328L124.37 20.376ZM145.127 15.912V18.432H135.791V22.968H144.455V25.392H135.791V30.432H145.271V33H132.815V15.912H145.127ZM153.74 15.888V18C153.212 17.952 152.804 17.928 152.54 17.928C151.964 17.928 151.604 18.048 151.412 18.24C151.22 18.432 151.124 18.84 151.124 19.416V20.616H153.476V22.608H151.148V33H148.436V22.608H146.396V20.616H148.436V19.632C148.436 18.336 148.7 17.376 149.276 16.752C149.828 16.128 150.764 15.816 152.108 15.816C152.636 15.816 153.188 15.84 153.74 15.888ZM160.889 15.888V18C160.361 17.952 159.953 17.928 159.689 17.928C159.113 17.928 158.753 18.048 158.561 18.24C158.369 18.432 158.273 18.84 158.273 19.416V20.616H160.625V22.608H158.297V33H155.585V22.608H153.545V20.616H155.585V19.632C155.585 18.336 155.849 17.376 156.425 16.752C156.977 16.128 157.913 15.816 159.257 15.816C159.785 15.816 160.337 15.84 160.889 15.888ZM173.403 29.136C173.091 30.48 172.419 31.536 171.411 32.28C170.403 33.048 169.179 33.408 167.787 33.408C165.915 33.408 164.427 32.808 163.323 31.608C162.219 30.408 161.691 28.848 161.691 26.952C161.691 25.032 162.243 23.424 163.371 22.152C164.499 20.904 165.939 20.256 167.691 20.256C169.491 20.256 170.931 20.88 171.987 22.128C173.043 23.376 173.571 25.056 173.571 27.192V27.48H164.427C164.451 28.728 164.763 29.712 165.363 30.384C165.939 31.056 166.779 31.392 167.835 31.392C168.579 31.392 169.179 31.224 169.659 30.864C170.139 30.504 170.499 29.928 170.787 29.136H173.403ZM170.835 25.656C170.739 24.624 170.427 23.808 169.851 23.208C169.275 22.608 168.555 22.296 167.667 22.296C166.755 22.296 166.035 22.584 165.483 23.16C164.931 23.736 164.595 24.576 164.475 25.656H170.835ZM186.883 28.32C186.691 29.856 186.067 31.056 185.059 31.968C184.027 32.88 182.731 33.312 181.195 33.312C179.323 33.312 177.859 32.736 176.755 31.56C175.651 30.384 175.099 28.848 175.099 26.928C175.099 24.888 175.651 23.256 176.755 22.056C177.859 20.856 179.371 20.232 181.267 20.232C182.851 20.232 184.123 20.64 185.083 21.432C186.043 22.248 186.619 23.352 186.787 24.768H184.075C183.907 24 183.595 23.4 183.115 22.968C182.635 22.56 182.011 22.344 181.291 22.344C180.235 22.344 179.395 22.752 178.795 23.544C178.171 24.336 177.883 25.416 177.883 26.784C177.883 28.176 178.171 29.232 178.747 30C179.323 30.768 180.139 31.152 181.195 31.152C182.011 31.152 182.659 30.912 183.187 30.432C183.715 29.952 184.051 29.232 184.195 28.32H186.883ZM195.035 20.616V22.608H192.539V29.136C192.539 29.52 192.539 29.808 192.563 29.952C192.563 30.096 192.611 30.264 192.707 30.456C192.779 30.648 192.923 30.768 193.115 30.816C193.307 30.888 193.595 30.912 193.955 30.912C194.387 30.912 194.747 30.912 195.035 30.864V33.024C194.483 33.096 193.859 33.12 193.187 33.12C192.707 33.12 192.275 33.096 191.915 33.024C191.555 32.952 191.267 32.856 191.027 32.76C190.787 32.664 190.571 32.52 190.427 32.28C190.259 32.04 190.139 31.848 190.043 31.704C189.947 31.56 189.899 31.272 189.851 30.888C189.803 30.504 189.803 30.216 189.803 30.024V28.968V28.824V28.68V28.512V22.608H187.739V20.616H189.803V16.896H192.539V20.616H195.035ZM206.795 24.216H204.179C204.011 22.92 203.123 22.248 201.491 22.248C200.771 22.248 200.243 22.392 199.859 22.632C199.475 22.896 199.283 23.256 199.283 23.688C199.283 23.832 199.283 23.976 199.307 24.072C199.331 24.192 199.379 24.288 199.451 24.384C199.523 24.48 199.595 24.552 199.643 24.6C199.691 24.672 199.811 24.744 199.955 24.792C200.099 24.864 200.195 24.912 200.291 24.96C200.387 25.008 200.531 25.056 200.747 25.104C200.939 25.152 201.107 25.2 201.227 25.224C201.347 25.272 201.539 25.32 201.827 25.368C202.091 25.416 202.307 25.464 202.451 25.488C203.075 25.632 203.507 25.752 203.795 25.824C204.083 25.896 204.491 26.04 205.019 26.256C205.547 26.472 205.955 26.688 206.219 26.928C206.459 27.168 206.699 27.48 206.915 27.888C207.131 28.296 207.251 28.752 207.251 29.28C207.251 30.528 206.747 31.536 205.787 32.256C204.803 33 203.483 33.36 201.851 33.36C200.075 33.36 198.731 33 197.795 32.256C196.835 31.536 196.331 30.456 196.283 29.04H198.899C199.043 30.6 200.027 31.368 201.899 31.368C202.691 31.368 203.339 31.224 203.819 30.888C204.299 30.552 204.563 30.12 204.563 29.568C204.563 29.304 204.491 29.064 204.371 28.872C204.251 28.68 204.059 28.536 203.795 28.392C203.507 28.248 203.243 28.152 203.003 28.08C202.763 28.008 202.427 27.912 202.019 27.816L201.875 27.792C201.827 27.792 201.803 27.768 201.755 27.768C201.707 27.768 201.659 27.744 201.611 27.72C199.835 27.288 198.731 26.952 198.251 26.712C197.099 26.184 196.547 25.272 196.547 24C196.547 22.848 196.979 21.936 197.891 21.264C198.779 20.592 200.027 20.256 201.611 20.256C203.123 20.256 204.371 20.592 205.331 21.24C206.291 21.912 206.795 22.896 206.795 24.216Z" fill="black"/>
<defs>
<clipPath id="clip0_152_34">
<rect width="55" height="54" fill="white"/>
</clipPath>
</defs>
</svg>
