<svg width="140" height="70" viewBox="0 0 140 70" fill="none" xmlns="http://www.w3.org/2000/svg">
<path d="M20.9752 62.8056C26.0891 62.8056 30.2405 58.6542 30.2405 53.5403V44.275H20.9752C15.8613 44.275 11.71 48.4264 11.71 53.5403C11.71 58.6542 15.8613 62.8056 20.9752 62.8056Z" fill="black"/>
<path d="M11.7012 35C11.7012 29.8861 15.8526 25.7347 20.9664 25.7347H30.2317V44.275H20.9664C15.8526 44.275 11.7012 40.1236 11.7012 35.0097V35Z" fill="black"/>
<path d="M11.7012 16.4597C11.7012 11.3458 15.8526 7.19446 20.9664 7.19446H30.2317V25.7347H20.9664C15.8526 25.7347 11.7012 21.5833 11.7012 16.4695V16.4597Z" fill="black"/>
<path d="M30.1533 7.19446H39.4186C44.5325 7.19446 48.6839 11.3458 48.6839 16.4597C48.6839 21.5736 44.5325 25.725 39.4186 25.725H30.1533V7.19446Z" fill="black"/>
<path d="M48.7811 35C48.7811 40.1139 44.6297 44.2653 39.5158 44.2653C34.4019 44.2653 30.1533 40.1139 30.1533 35C30.1533 29.8861 34.3047 25.7347 39.4186 25.7347C44.5325 25.7347 48.6839 29.8861 48.6839 35H48.7811Z" fill="black"/>
<path d="M58.9121 22.5555V41.9805H61.4107V32.7055H67.4191V30.2944H61.4107V24.9861H69.2177V22.5555H58.9121ZM73.7385 26.5028C74.6427 26.5028 75.3718 25.7736 75.3718 24.8694C75.3718 23.9653 74.6329 23.3333 73.7385 23.3333C72.8441 23.3333 72.1052 24.0625 72.1052 24.9667C72.1052 25.4042 72.2802 25.8125 72.5913 26.1333C72.9024 26.4542 73.3107 26.6194 73.7579 26.6194L73.7385 26.5028ZM72.4746 28.9528V41.9805H74.876V28.9528H72.3968H72.4746ZM84.2579 28.5639C80.9329 28.5639 78.6191 31.4805 78.6191 34.7083C78.6191 37.9361 80.9524 40.8333 84.2579 40.8333C84.9458 40.8454 85.6286 40.7141 86.2629 40.448C86.8973 40.1819 87.4693 39.7867 87.9427 39.2875V41.018C87.9357 42.0578 87.5324 43.0557 86.8149 43.8083C86.4524 44.1781 86.0198 44.4718 85.5423 44.6721C85.0648 44.8725 84.5521 44.9754 84.0343 44.975C83.2392 44.9499 82.4688 44.6931 81.8177 44.2361L80.5538 46.4041C81.5244 47.0284 82.6454 47.3793 83.7986 47.4199C84.9519 47.4606 86.0948 47.1894 87.107 46.6351C88.1191 46.0808 88.963 45.2637 89.5498 44.2701C90.1366 43.2764 90.4446 42.1429 90.4413 40.9889V28.9333H87.9427V30.1C87.4693 29.6008 86.8973 29.2056 86.2629 28.9395C85.6286 28.6733 84.9458 28.5518 84.2579 28.5639ZM81.1274 34.7083C81.0705 34.0762 81.1914 33.4408 81.4766 32.8739C81.7618 32.307 82.1998 31.8311 82.7413 31.5C83.8496 30.8194 85.2399 30.8194 86.3385 31.5C87.4371 32.1805 88.0593 33.425 87.9524 34.7083C88.0093 35.3404 87.8884 35.9758 87.6032 36.5427C87.318 37.1097 86.8799 37.5856 86.3385 37.9167C85.2302 38.5972 83.8399 38.5972 82.7413 37.9167C81.6427 37.2361 81.0204 35.9917 81.1274 34.7083Z" fill="black"/>
<path d="M99.4533 31.1111C98.7347 31.1137 98.0462 31.4003 97.5381 31.9084C97.03 32.4166 96.7434 33.105 96.7408 33.8236V42.0681H94.2422V29.0403H96.7408V30.1389C97.4991 29.1278 98.7047 28.5444 99.9686 28.5639C101.563 28.525 103.051 29.3806 103.838 30.7708C104.81 29.4097 106.21 28.5833 107.727 28.5639C110.576 28.5639 112.345 30.8583 112.355 33.6972V41.9903H109.856V33.7264C109.929 33.2116 109.854 32.6866 109.638 32.2135C109.422 31.7404 109.075 31.339 108.639 31.0568C108.202 30.7745 107.694 30.6232 107.174 30.6208C106.654 30.6184 106.144 30.7649 105.705 31.0431C105.268 31.3279 104.922 31.7322 104.708 32.2079C104.495 32.6836 104.422 33.2106 104.499 33.7264V41.9708H102.098V33.7361C102.095 33.0175 101.809 32.3291 101.3 31.8209C100.792 31.3128 100.104 31.0262 99.3852 31.0236L99.4533 31.1111ZM125.703 30.4306C125.135 29.8371 124.451 29.3662 123.693 29.0469C122.936 28.7276 122.121 28.5665 121.299 28.5736C117.576 28.5736 114.98 31.7236 114.98 35.3792C114.98 39.0347 117.605 42.1847 121.299 42.1847C122.121 42.1918 122.936 42.0308 123.693 41.7114C124.451 41.3921 125.135 40.9212 125.703 40.3278V41.8056H128.202V28.7778H125.703V30.4306ZM117.439 35.4861C117.313 33.9306 118.071 32.4333 119.403 31.6167C120.735 30.8 122.32 30.8 123.739 31.6167C124.39 32.0202 124.916 32.5943 125.263 33.2766C125.609 33.9589 125.761 34.7232 125.703 35.4861C125.83 37.0417 125.071 38.5389 123.739 39.3556C122.407 40.1722 120.823 40.1722 119.403 39.3556C118.753 38.9521 118.226 38.3779 117.88 37.6956C117.534 37.0133 117.381 36.2491 117.439 35.4861Z" fill="black"/>
</svg>
