<svg width="109" height="46" viewBox="0 0 109 46" fill="none" xmlns="http://www.w3.org/2000/svg">
<g clip-path="url(#clip0_142_30)">
<path d="M55.7859 8.8172H59.8475V28.9382C59.8475 34.2437 57.431 37.9475 51.8269 37.9475C49.7189 37.9475 48.0735 37.5972 46.9424 37.1967V33.3428C48.1764 33.8433 49.6674 34.0936 51.1584 34.0936C54.6032 34.0936 55.7859 32.0915 55.7859 29.1884V8.8172Z" fill="black"/>
<path d="M67.3031 7.26556C68.897 7.26556 70.0281 8.21656 70.0281 9.91833C70.0281 11.5701 68.897 12.5711 67.3031 12.5711C65.7091 12.5711 64.5781 11.6201 64.5781 9.91833C64.5781 8.26661 65.7091 7.26556 67.3031 7.26556ZM65.298 15.7244H69.2055V37.7474H65.298V15.7244Z" fill="black"/>
<path d="M78.8712 37.7474H75.0664V15.7243H78.8712V19.5784C80.2079 16.9757 82.4702 15.1238 86.8919 15.374V19.0779C81.9047 18.5773 78.8712 20.0288 78.8712 24.7337V37.7474Z" fill="black"/>
<path d="M105.144 33.7933C103.705 36.6963 100.98 38.1978 97.4836 38.1978C91.4681 38.1978 88.4346 33.2427 88.4346 26.7359C88.4346 20.5293 91.6222 15.274 97.9464 15.274C101.237 15.274 103.808 16.7254 105.144 19.5784V15.7244H109.052V37.7474H105.144V33.7933ZM98.5119 34.6942C102.008 34.6942 105.093 32.542 105.093 27.6368V25.885C105.093 20.9799 102.265 18.8276 98.9232 18.8276C94.5529 18.8276 92.2907 21.6306 92.2907 26.7359C92.3421 32.0414 94.5016 34.6942 98.5119 34.6942Z" fill="black"/>
<path d="M35.3735 4.3125H17.584C17.584 8.61699 21.183 12.1207 25.6047 12.1207H28.8952V15.1738C28.8952 19.4783 32.4943 22.982 36.916 22.982V5.81407C36.916 4.96318 36.2477 4.3125 35.3735 4.3125Z" fill="black"/>
<path d="M26.5816 12.9214H8.79199C8.79199 17.2259 12.391 20.7295 16.8128 20.7295H20.1033V23.8328C20.1033 28.1372 23.7024 31.641 28.1241 31.641V14.4229C28.1241 13.6221 27.4556 12.9214 26.5816 12.9214Z" fill="black"/>
<path d="M17.7897 21.5804H0C0 25.8849 3.59905 29.3885 8.02075 29.3885H11.3113V32.4418C11.3113 36.7462 14.9103 40.2498 19.332 40.2498V23.0819C19.332 22.2311 18.6123 21.5804 17.7897 21.5804Z" fill="black"/>
</g>
<defs>
<clipPath id="clip0_142_30">
<rect width="109" height="46" fill="white"/>
</clipPath>
</defs>
</svg>
