<svg width="132" height="46" viewBox="0 0 132 46" fill="none" xmlns="http://www.w3.org/2000/svg">
<g clip-path="url(#clip0_142_46)">
<path d="M77.5936 12.5022C77.5936 15.9091 74.9615 18.4195 71.7314 18.4195C68.5012 18.4195 65.8691 15.9091 65.8691 12.5022C65.8691 9.07139 68.5012 6.58496 71.7314 6.58496C74.9615 6.58496 77.5936 9.07139 77.5936 12.5022ZM75.0274 12.5022C75.0274 10.3733 73.5019 8.91666 71.7314 8.91666C69.9608 8.91666 68.4353 10.3733 68.4353 12.5022C68.4353 14.6098 69.9608 16.0878 71.7314 16.0878C73.5019 16.0878 75.0274 14.6072 75.0274 12.5022Z" fill="black"/>
<path d="M90.24 12.5022C90.24 15.9091 87.608 18.4195 84.3778 18.4195C81.1477 18.4195 78.5156 15.9091 78.5156 12.5022C78.5156 9.07406 81.1477 6.58496 84.3778 6.58496C87.608 6.58496 90.24 9.07139 90.24 12.5022ZM87.6738 12.5022C87.6738 10.3733 86.1484 8.91666 84.3778 8.91666C82.6073 8.91666 81.0818 10.3733 81.0818 12.5022C81.0818 14.6098 82.6073 16.0878 84.3778 16.0878C86.1484 16.0878 87.6738 14.6072 87.6738 12.5022Z" fill="black"/>
<path d="M102.359 6.94245V17.5658C102.359 21.9357 99.8139 23.7205 96.8051 23.7205C93.9727 23.7205 92.2681 21.8023 91.6252 20.2337L93.8595 19.2919C94.2573 20.255 95.2321 21.3915 96.8024 21.3915C98.7284 21.3915 99.9219 20.1883 99.9219 17.9233V17.0723H99.8323C99.258 17.7899 98.1514 18.4168 96.755 18.4168C93.8331 18.4168 91.1562 15.8397 91.1562 12.5236C91.1562 9.18344 93.8331 6.58496 96.755 6.58496C98.1487 6.58496 99.2553 7.2119 99.8323 7.90821H99.9219V6.94512H102.359V6.94245ZM100.104 12.5236C100.104 10.44 98.731 8.91666 96.9842 8.91666C95.2137 8.91666 93.7304 10.44 93.7304 12.5236C93.7304 14.5858 95.2137 16.0878 96.9842 16.0878C98.731 16.0878 100.104 14.5858 100.104 12.5236Z" fill="black"/>
<path d="M106.377 0.715698V18.0567H103.874V0.715698H106.377Z" fill="black"/>
<path d="M116.131 14.4497L118.123 15.7943C117.48 16.7574 115.931 18.4168 113.254 18.4168C109.934 18.4168 107.455 15.8184 107.455 12.4996C107.455 8.98067 109.955 6.58228 112.967 6.58228C115.999 6.58228 117.483 9.02602 117.968 10.3466L118.234 11.0189L110.422 14.295C111.02 15.4822 111.95 16.0878 113.254 16.0878C114.561 16.0878 115.467 15.4368 116.131 14.4497ZM110 12.3208L115.222 10.1252C114.935 9.38618 114.071 8.87129 113.054 8.87129C111.75 8.87129 109.934 10.0371 110 12.3208Z" fill="black"/>
<path d="M56.3944 10.9629V8.45242H64.7491C64.8307 8.88995 64.8729 9.40751 64.8729 9.96776C64.8729 11.8513 64.3644 14.1803 62.7256 15.8397C61.1316 17.5204 59.095 18.4168 56.3971 18.4168C51.3964 18.4168 47.1914 14.2923 47.1914 9.22876C47.1914 4.1652 51.3964 0.0407104 56.3971 0.0407104C59.1635 0.0407104 61.1342 1.13986 62.6149 2.57249L60.8655 4.34394C59.8037 3.3355 58.3652 2.55115 56.3944 2.55115C52.7427 2.55115 49.8867 5.53113 49.8867 9.22876C49.8867 12.9264 52.7427 15.9064 56.3944 15.9064C58.763 15.9064 60.112 14.9433 60.9762 14.0682C61.677 13.3586 62.1381 12.3448 62.3199 10.9602L56.3944 10.9629Z" fill="black"/>
<path d="M54.0475 27.7426L51.4746 34.9489H56.724L54.1305 27.7426H54.0475ZM49.2545 41.1888H47.0137L52.9478 25.2214H55.2509L61.185 41.1888H58.9442L57.4295 36.8608H50.7899L49.2545 41.1888Z" fill="black"/>
<path d="M62.2061 30.2638H64.1564V31.7765H64.2394C64.5403 31.246 65.0123 30.8048 65.6503 30.4529C66.2987 30.0905 66.9627 29.9066 67.6422 29.9066C68.9701 29.9066 69.9868 30.2953 70.6923 31.0621C71.4081 31.8185 71.7712 32.9057 71.7712 34.3186V41.1888H69.7378V34.4657C69.6963 32.6746 68.8093 31.7765 67.082 31.7765C66.278 31.7765 65.5985 32.1126 65.0486 32.7849C64.5092 33.4467 64.2394 34.2294 64.2394 35.138V41.1888H62.2061V30.2638Z" fill="black"/>
<path d="M75.5243 37.8483C75.5243 38.384 75.7422 38.8305 76.1883 39.1929C76.6292 39.5448 77.1531 39.7181 77.7652 39.7181C78.6055 39.7181 79.3628 39.403 80.0268 38.7727C80.7011 38.1319 81.0435 37.3756 81.0435 36.5037C80.4054 35.9994 79.5184 35.7473 78.3876 35.7473C77.5681 35.7473 76.8834 35.9521 76.3335 36.3566C75.7941 36.7505 75.5243 37.2495 75.5243 37.8483ZM78.1387 29.9066C79.6326 29.9066 80.8049 30.3163 81.6659 31.1252C82.5374 31.9393 82.9731 33.0528 82.9731 34.4657V41.1888H81.0435V39.6761H80.9605C80.115 40.9262 78.9945 41.546 77.5992 41.546C76.4061 41.546 75.4102 41.1888 74.6114 40.4745C73.8229 39.7602 73.4287 38.8725 73.4287 37.8063C73.4287 36.6717 73.8489 35.7788 74.6944 35.117C75.5347 34.4447 76.6655 34.1085 78.0764 34.1085C79.2798 34.1085 80.2654 34.3292 81.0435 34.7598V34.2976C81.0435 33.5833 80.7582 32.9845 80.1928 32.4908C79.6377 31.9866 78.9894 31.7345 78.2424 31.7345C77.1064 31.7345 76.2142 32.2177 75.5658 33.1841L73.7814 32.0496C74.7618 30.6209 76.2142 29.9066 78.1387 29.9066Z" fill="black"/>
<path d="M87.215 25.2214V41.1888H85.1816V25.2214H87.215Z" fill="black"/>
<path d="M99.1692 30.2637L92.4051 46H90.3303L92.8408 40.4954L88.3799 30.2637H90.5792L93.7953 38.1213H93.8368L96.9698 30.2637H99.1692Z" fill="black"/>
<path d="M104.738 41.3569C103.867 41.3569 103.141 41.0837 102.56 40.5375C101.979 39.9912 101.678 39.2296 101.668 38.2474V32.1336H99.7588V30.2638H101.668V26.9232H103.68V30.2638H106.336V32.1336H103.68V37.5751C103.68 38.3052 103.815 38.8042 104.095 39.0668C104.386 39.3189 104.702 39.445 105.05 39.445C105.216 39.445 105.371 39.4345 105.527 39.403C105.677 39.3609 105.823 39.3137 105.963 39.2559L106.585 41.0837C106.056 41.2623 105.444 41.3569 104.738 41.3569Z" fill="black"/>
<path d="M110.771 26.503C110.771 26.8969 110.625 27.2384 110.335 27.5325C110.055 27.8161 109.723 27.9527 109.339 27.9527C108.934 27.9527 108.597 27.8161 108.322 27.5325C108.042 27.2384 107.907 26.8969 107.907 26.503C107.907 26.0986 108.042 25.7572 108.322 25.4735C108.597 25.1952 108.934 25.0533 109.339 25.0533C109.723 25.0533 110.055 25.1952 110.335 25.4735C110.625 25.7572 110.771 26.0986 110.771 26.503ZM110.356 30.2637V41.1888H108.322V30.2637H110.356Z" fill="black"/>
<path d="M117.186 41.546C115.578 41.546 114.25 40.9945 113.203 39.8862C112.165 38.7674 111.646 37.3808 111.646 35.7263C111.646 34.0455 112.165 32.6589 113.203 31.5664C114.25 30.4634 115.578 29.9066 117.186 29.9066C118.291 29.9066 119.251 30.1902 120.07 30.747C120.885 31.309 121.502 32.0811 121.917 33.0581L120.07 33.8354C119.5 32.4645 118.499 31.7765 117.062 31.7765C116.133 31.7765 115.329 32.1547 114.655 32.911C113.991 33.6673 113.659 34.6075 113.659 35.7263C113.659 36.8503 113.991 37.7852 114.655 38.5416C115.329 39.2979 116.133 39.6761 117.062 39.6761C118.54 39.6761 119.578 38.9933 120.174 37.6172L121.979 38.3945C121.59 39.3767 120.973 40.1488 120.133 40.7056C119.287 41.2623 118.307 41.546 117.186 41.546Z" fill="black"/>
<path d="M132 38.1634C132 39.1194 131.585 39.923 130.755 40.5795C129.935 41.2203 128.908 41.546 127.663 41.546C126.584 41.546 125.63 41.2571 124.8 40.6846C123.98 40.1121 123.394 39.3557 123.036 38.4155L124.841 37.6382C125.116 38.3 125.505 38.8095 126.003 39.1719C126.512 39.5395 127.067 39.7181 127.663 39.7181C128.311 39.7181 128.851 39.5816 129.281 39.2979C129.722 39.0196 129.945 38.6834 129.945 38.2895C129.945 37.5909 129.411 37.0814 128.348 36.7558L126.501 36.2936C124.395 35.7473 123.347 34.7178 123.347 33.2051C123.347 32.2124 123.747 31.4141 124.551 30.81C125.35 30.2113 126.377 29.9066 127.622 29.9066C128.576 29.9066 129.437 30.1377 130.215 30.5999C130.988 31.0621 131.528 31.6819 131.834 32.4488L130.028 33.2051C129.821 32.7429 129.479 32.3858 129.012 32.1336C128.555 31.871 128.042 31.7345 127.476 31.7345C126.947 31.7345 126.47 31.871 126.045 32.1336C125.63 32.4015 125.422 32.7324 125.422 33.1211C125.422 33.7409 126.003 34.1873 127.165 34.4657L128.784 34.8859C130.926 35.4217 132 36.5142 132 38.1634Z" fill="black"/>
<path d="M27.8506 5.3839V39.2256C27.8506 43.0152 30.43 45.1223 33.1676 45.1223C35.6995 45.1223 38.4846 43.3276 38.4846 39.2256V5.64028C38.4846 2.17119 35.9527 0 33.1676 0C30.3825 0 27.8506 2.39551 27.8506 5.3839Z" fill="black"/>
<path d="M13.9258 22.5611V39.2256C13.9258 43.0152 16.5052 45.1223 19.2428 45.1223C21.7747 45.1223 24.5598 43.3276 24.5598 39.2256V22.8175C24.5598 19.3484 22.0279 17.1772 19.2428 17.1772C16.4577 17.1772 13.9258 19.5728 13.9258 22.5611Z" fill="black"/>
<path d="M10.634 39.7384C10.634 42.7108 8.25247 45.1223 5.31702 45.1223C2.38158 45.1223 0 42.7108 0 39.7384C0 36.766 2.38158 34.3545 5.31702 34.3545C8.25247 34.3545 10.634 36.766 10.634 39.7384Z" fill="black"/>
</g>
<defs>
<clipPath id="clip0_142_46">
<rect width="132" height="46" fill="white"/>
</clipPath>
</defs>
</svg>
