<svg width="136" height="50" viewBox="0 0 136 50" fill="none" xmlns="http://www.w3.org/2000/svg">
<g clip-path="url(#clip0_152_18)">
<path d="M102.991 25.3609V36.3615H107.492V26.0354C107.492 21.4364 113.744 21.4289 113.744 21.4289V16.9534L113.288 16.9815C112.677 17.0258 111.56 17.1295 110.615 17.3424L110.057 17.4758C106.354 18.4161 102.991 20.4067 102.991 25.3609ZM69.0635 16.7309C70.8168 16.7309 73.0075 17.7241 74.2002 19.4709C75.4352 17.8823 77.466 16.81 79.9753 16.7693C83.163 16.7284 87.1045 18.7149 87.1045 24.6728V36.3478H82.6026V24.6728C82.6026 22.6865 81.1681 21.2584 79.0207 21.2584C76.8733 21.2584 75.4375 22.6865 75.4375 24.6728V36.3478H70.9369V24.6728C70.9369 22.6865 69.5036 21.2584 67.3539 21.2584C65.204 21.2584 63.7299 22.6865 63.7299 24.6728V36.3478H58.9961V17.3227H63.7299V19.2337C64.9347 17.7718 66.6693 16.8388 68.7039 16.7397L69.0635 16.7309ZM97.4543 17.5649V36.3617H92.8767V17.5649H97.4543ZM95.1649 14.5742C96.5762 14.5742 97.7204 13.4343 97.7204 12.0282C97.7204 10.6221 96.5762 9.48218 95.1649 9.48218C93.7537 9.48218 92.6097 10.6221 92.6097 12.0282C92.6097 13.4343 93.7537 14.5742 95.1649 14.5742ZM125.967 16.6902C120.425 16.6902 115.933 21.1658 115.933 26.6877C115.933 32.2095 120.425 36.6851 125.967 36.6851C131.509 36.6851 136.001 32.2095 136.001 26.6877C136.001 21.1658 131.509 16.6902 125.967 16.6902ZM125.967 32.1898C122.83 32.1898 120.286 29.6562 120.286 26.5296C120.286 23.4029 122.829 20.8693 125.967 20.8693C129.105 20.8693 131.648 23.4029 131.648 26.5296C131.648 29.6562 129.105 32.1898 125.967 32.1898Z" fill="black"/>
<path d="M37.2607 0C44.12 0.0002535 49.6806 5.56773 49.6807 12.4355V37.3066C49.6807 44.1745 44.12 49.7419 37.2607 49.7422H12.4199C5.56057 49.7421 0 44.1746 0 37.3066V12.4355C4.81197e-05 5.56763 5.5606 9.18258e-05 12.4199 0H37.2607ZM14.9883 19.7686L10.4785 40.3379H14.9883L23.6328 18.2988L19.498 40.3379H24.0078L32.2764 16.8291L28.5176 40.3379H33.0273L41.2959 14.624L33.0273 9.48242H28.5176L32.2764 16.0938L24.0078 9.48242H19.498L23.6328 17.5635L14.9883 9.48242H10.4785L14.9883 19.7686Z" fill="black"/>
</g>
<defs>
<clipPath id="clip0_152_18">
<rect width="136" height="50" fill="white"/>
</clipPath>
</defs>
</svg>
