<svg width="192" height="54" viewBox="0 0 192 54" fill="none" xmlns="http://www.w3.org/2000/svg">
<g clip-path="url(#clip0_152_12)">
<path d="M41.3438 0C48.3336 0 54 5.6664 54 12.6562V41.3438C54 48.3336 48.3336 54 41.3438 54H12.6562C5.6664 54 0 48.3336 0 41.3438V12.6562C0 5.6664 5.6664 0 12.6562 0H41.3438ZM38.7227 19.6006C37.1253 19.6006 35.7978 19.8477 34.7402 20.3877C33.7729 20.8377 32.9405 21.5579 32.3779 22.458C31.8831 23.2904 31.6133 24.2133 31.6133 25.1807C31.5908 25.9682 31.7709 26.7558 32.1309 27.4756C32.5584 28.2405 33.1434 28.8927 33.8408 29.3877C34.8307 30.0626 35.8878 30.6028 37.0352 31.0078C38.1377 31.4354 38.8802 31.7731 39.2402 32.0654C39.5999 32.3579 39.7801 32.6501 39.7803 32.9648C39.7803 33.3698 39.5327 33.7526 39.1729 33.9102C38.7679 34.1126 38.1606 34.2256 37.3057 34.2256C36.4058 34.2256 35.5053 34.1128 34.6504 33.8877C33.6603 33.6628 32.7378 33.3026 31.8604 32.7852C31.793 32.7401 31.7256 32.718 31.6582 32.7627C31.5909 32.8075 31.5675 32.8974 31.5674 32.9648V36.8799C31.545 37.0598 31.6579 37.2175 31.8154 37.3076C32.5353 37.6451 33.3228 37.8923 34.1104 38.0273C35.1227 38.2298 36.1352 38.3203 37.1699 38.3203C38.7899 38.3203 40.1406 38.0731 41.2432 37.6006C42.2556 37.1956 43.1327 36.4977 43.7627 35.5977C44.3476 34.7202 44.6629 33.663 44.6406 32.6055C44.663 31.7956 44.483 31.0079 44.123 30.2881C43.6957 29.523 43.0882 28.8924 42.3457 28.4199C41.2657 27.7449 40.0949 27.1833 38.8799 26.7783C38.34 26.5533 37.8005 26.3051 37.2832 26.0352C36.9906 25.8776 36.7201 25.6752 36.5176 25.4277C36.3827 25.2477 36.293 25.0452 36.293 24.8428C36.293 24.6404 36.3601 24.4155 36.4727 24.2354C36.63 24.0106 36.8777 23.8527 37.1699 23.7852C37.5975 23.6727 38.0706 23.6056 38.5205 23.6279C39.3754 23.6279 40.2077 23.7401 41.04 23.9199C41.8051 24.0775 42.5252 24.3255 43.2002 24.6855C43.2903 24.7305 43.403 24.7305 43.6055 24.6855C43.673 24.6404 43.7178 24.55 43.7178 24.46V20.793C43.7178 20.703 43.6954 20.6125 43.6729 20.5225C43.6279 20.4327 43.5381 20.343 43.4482 20.3203C42.8407 20.0728 42.1877 19.8927 41.5127 19.8027C40.5903 19.6678 39.6452 19.6006 38.7227 19.6006ZM19.3506 14.0205C18.6756 14.0205 18.0002 14.0205 17.3027 14.043C16.6054 14.0655 15.9531 14.0654 15.3457 14.0879C14.7383 14.1104 14.1756 14.1103 13.6357 14.1328C13.1182 14.1553 12.7575 14.1553 12.375 14.1553C12.2179 14.1554 12.1505 14.2452 12.1504 14.4023V37.5557C12.1505 37.7577 12.2403 37.8475 12.4199 37.8477H16.7852C16.9425 37.8251 17.0554 37.6906 17.0332 37.5332V30.3105C17.4603 30.3105 17.7751 30.3105 18 30.333C18.225 30.3556 18.5852 30.3555 19.125 30.3555C20.9699 30.3555 22.6574 30.1523 24.1875 29.5898C25.6499 29.0499 26.9105 28.1056 27.8105 26.8457C28.7106 25.5856 29.1602 23.9877 29.1602 22.0527C29.1601 21.0402 28.9801 20.0729 28.6426 19.1279C28.2825 18.1604 27.7199 17.2825 27 16.5625C26.1451 15.7302 25.1101 15.1002 23.9854 14.7178C22.7253 14.2453 21.1954 14.0205 19.3506 14.0205ZM19.5078 18.4531C20.4303 18.4306 21.3305 18.5649 22.1631 18.9023C22.8155 19.1499 23.3559 19.6006 23.7383 20.1855C24.0981 20.7928 24.2781 21.4902 24.2559 22.1875C24.2559 23.1774 24.0301 23.9425 23.5576 24.5049C23.0625 25.0675 22.433 25.4957 21.7129 25.6982C20.8805 25.9682 20.0025 26.1025 19.125 26.1025H17.9326C17.6628 26.1025 17.3705 26.0802 17.0557 26.0576V18.498C17.2132 18.4756 17.5279 18.4531 17.9775 18.4756C18.405 18.4531 18.9229 18.4531 19.5078 18.4531Z" fill="black"/>
</g>
<path d="M72.1683 15.912H79.5843C81.4083 15.912 82.8723 16.368 83.9283 17.232C84.9843 18.096 85.5363 19.392 85.5363 21.12C85.5363 22.752 85.0323 24.048 84.0483 25.008C83.0403 25.968 81.6963 26.424 79.9923 26.424H75.1683V33H72.1683V15.912ZM75.1683 18.408V24H79.3443C81.5043 24 82.6083 23.064 82.6083 21.192C82.6083 19.344 81.4323 18.408 79.0803 18.408H75.1683ZM90.5041 15.912V22.32C91.4161 20.976 92.7121 20.304 94.4161 20.304C95.7601 20.304 96.7921 20.688 97.5601 21.408C98.3041 22.128 98.6881 23.208 98.6881 24.6V33H95.9281V25.488C95.9281 24.552 95.7601 23.832 95.4241 23.328C95.0881 22.848 94.4641 22.584 93.5281 22.584C92.4721 22.584 91.7041 22.944 91.2241 23.616C90.7441 24.312 90.5041 25.224 90.5041 26.352V33H87.7921V15.912H90.5041ZM107.285 20.256C109.157 20.256 110.669 20.856 111.797 22.032C112.901 23.232 113.477 24.816 113.477 26.808C113.477 28.824 112.901 30.432 111.797 31.608C110.693 32.808 109.181 33.384 107.285 33.384C105.341 33.384 103.805 32.808 102.677 31.608C101.525 30.432 100.973 28.824 100.973 26.808C100.973 24.816 101.525 23.232 102.677 22.032C103.829 20.856 105.365 20.256 107.285 20.256ZM107.237 22.416C106.133 22.416 105.293 22.824 104.669 23.592C104.045 24.384 103.733 25.464 103.733 26.808C103.733 28.2 104.045 29.304 104.669 30.072C105.293 30.864 106.157 31.248 107.261 31.248C108.317 31.248 109.157 30.864 109.781 30.072C110.405 29.28 110.717 28.176 110.717 26.784C110.717 25.44 110.405 24.36 109.781 23.592C109.157 22.824 108.317 22.416 107.237 22.416ZM121.824 20.616V22.608H119.328V29.136C119.328 29.52 119.328 29.808 119.352 29.952C119.352 30.096 119.4 30.264 119.496 30.456C119.568 30.648 119.712 30.768 119.904 30.816C120.096 30.888 120.384 30.912 120.744 30.912C121.176 30.912 121.536 30.912 121.824 30.864V33.024C121.272 33.096 120.648 33.12 119.976 33.12C119.496 33.12 119.064 33.096 118.704 33.024C118.344 32.952 118.056 32.856 117.816 32.76C117.576 32.664 117.36 32.52 117.216 32.28C117.048 32.04 116.928 31.848 116.832 31.704C116.736 31.56 116.688 31.272 116.64 30.888C116.592 30.504 116.592 30.216 116.592 30.024V28.968V28.824V28.68V28.512V22.608H114.528V20.616H116.592V16.896H119.328V20.616H121.824ZM129.504 20.256C131.376 20.256 132.888 20.856 134.016 22.032C135.12 23.232 135.696 24.816 135.696 26.808C135.696 28.824 135.12 30.432 134.016 31.608C132.912 32.808 131.4 33.384 129.504 33.384C127.56 33.384 126.024 32.808 124.896 31.608C123.744 30.432 123.192 28.824 123.192 26.808C123.192 24.816 123.744 23.232 124.896 22.032C126.048 20.856 127.584 20.256 129.504 20.256ZM129.456 22.416C128.352 22.416 127.512 22.824 126.888 23.592C126.264 24.384 125.952 25.464 125.952 26.808C125.952 28.2 126.264 29.304 126.888 30.072C127.512 30.864 128.376 31.248 129.48 31.248C130.536 31.248 131.376 30.864 132 30.072C132.624 29.28 132.936 28.176 132.936 26.784C132.936 25.44 132.624 24.36 132 23.592C131.376 22.824 130.536 22.416 129.456 22.416ZM147.811 24.216H145.195C145.027 22.92 144.139 22.248 142.507 22.248C141.787 22.248 141.259 22.392 140.875 22.632C140.491 22.896 140.299 23.256 140.299 23.688C140.299 23.832 140.299 23.976 140.323 24.072C140.347 24.192 140.395 24.288 140.467 24.384C140.539 24.48 140.611 24.552 140.659 24.6C140.707 24.672 140.827 24.744 140.971 24.792C141.115 24.864 141.211 24.912 141.307 24.96C141.403 25.008 141.547 25.056 141.763 25.104C141.955 25.152 142.123 25.2 142.243 25.224C142.363 25.272 142.555 25.32 142.843 25.368C143.107 25.416 143.323 25.464 143.467 25.488C144.091 25.632 144.523 25.752 144.811 25.824C145.099 25.896 145.507 26.04 146.035 26.256C146.563 26.472 146.971 26.688 147.235 26.928C147.475 27.168 147.715 27.48 147.931 27.888C148.147 28.296 148.267 28.752 148.267 29.28C148.267 30.528 147.763 31.536 146.803 32.256C145.819 33 144.499 33.36 142.867 33.36C141.091 33.36 139.747 33 138.811 32.256C137.851 31.536 137.347 30.456 137.299 29.04H139.915C140.059 30.6 141.043 31.368 142.915 31.368C143.707 31.368 144.355 31.224 144.835 30.888C145.315 30.552 145.579 30.12 145.579 29.568C145.579 29.304 145.507 29.064 145.387 28.872C145.267 28.68 145.075 28.536 144.811 28.392C144.523 28.248 144.259 28.152 144.019 28.08C143.779 28.008 143.443 27.912 143.035 27.816L142.891 27.792C142.843 27.792 142.819 27.768 142.771 27.768C142.723 27.768 142.675 27.744 142.627 27.72C140.851 27.288 139.747 26.952 139.267 26.712C138.115 26.184 137.563 25.272 137.563 24C137.563 22.848 137.995 21.936 138.907 21.264C139.795 20.592 141.043 20.256 142.627 20.256C144.139 20.256 145.387 20.592 146.347 21.24C147.307 21.912 147.811 22.896 147.811 24.216ZM153.176 15.912V22.32C154.088 20.976 155.384 20.304 157.088 20.304C158.432 20.304 159.464 20.688 160.232 21.408C160.976 22.128 161.36 23.208 161.36 24.6V33H158.6V25.488C158.6 24.552 158.432 23.832 158.096 23.328C157.76 22.848 157.136 22.584 156.2 22.584C155.144 22.584 154.376 22.944 153.896 23.616C153.416 24.312 153.176 25.224 153.176 26.352V33H150.464V15.912H153.176ZM169.957 20.256C171.829 20.256 173.341 20.856 174.469 22.032C175.573 23.232 176.149 24.816 176.149 26.808C176.149 28.824 175.573 30.432 174.469 31.608C173.365 32.808 171.853 33.384 169.957 33.384C168.013 33.384 166.477 32.808 165.349 31.608C164.197 30.432 163.645 28.824 163.645 26.808C163.645 24.816 164.197 23.232 165.349 22.032C166.501 20.856 168.037 20.256 169.957 20.256ZM169.909 22.416C168.805 22.416 167.965 22.824 167.341 23.592C166.717 24.384 166.405 25.464 166.405 26.808C166.405 28.2 166.717 29.304 167.341 30.072C167.965 30.864 168.829 31.248 169.933 31.248C170.989 31.248 171.829 30.864 172.453 30.072C173.077 29.28 173.389 28.176 173.389 26.784C173.389 25.44 173.077 24.36 172.453 23.592C171.829 22.824 170.989 22.416 169.909 22.416ZM181.064 20.616V22.272C181.88 20.928 183.224 20.256 185.096 20.256C186.8 20.256 188.168 20.856 189.2 22.056C190.208 23.256 190.736 24.864 190.736 26.856C190.736 28.824 190.232 30.384 189.224 31.56C188.216 32.736 186.896 33.312 185.24 33.312C183.464 33.312 182.12 32.664 181.208 31.368V37.584H178.496V20.616H181.064ZM184.544 22.464C183.464 22.464 182.624 22.848 182.024 23.616C181.4 24.384 181.112 25.464 181.112 26.808C181.112 28.152 181.4 29.208 182.024 29.976C182.648 30.744 183.488 31.128 184.592 31.128C185.624 31.128 186.44 30.744 187.064 29.976C187.664 29.208 187.976 28.176 187.976 26.856C187.976 25.512 187.664 24.456 187.04 23.664C186.416 22.872 185.6 22.464 184.544 22.464Z" fill="black"/>
<defs>
<clipPath id="clip0_152_12">
<rect width="54" height="54" fill="white"/>
</clipPath>
</defs>
</svg>
